<?xml version="1.0" encoding="utf-8"?>
<!-- Generator: Adobe Illustrator 22.1.0, SVG Export Plug-In . SVG Version: 6.00 Build 0)  -->
<svg version="1.1" id="Layer_1" xmlns="http://www.w3.org/2000/svg" xmlns:xlink="http://www.w3.org/1999/xlink" x="0px" y="0px"
	 viewBox="0 0 200 80" style="enable-background:new 0 0 200 80;" xml:space="preserve">
<style type="text/css">
	.st0{fill:#A37A2D;}
</style>
<g>
	<g>
		<path class="st0" d="M42.8,40.9l-1.4,5.2H26.2v-0.2c1.8,0,2-1.2,2-3.5V27.3c0-2.4-0.2-3.5-2-3.5v-0.2h14.3l1.3,5.2h-0.1
			c-0.9-2.1-2.9-5-6.1-5H32c-1.8,0-2,1.2-2,3.5v7.5h3.3c2.5,0,4.5-1.6,4.5-3.8H38v7.8h-0.2c0-2.2-2-3.8-4.5-3.8H30v7.5
			c0,2.4,0.2,3.5,2,3.5h4.5c3.2,0,5.1-3,6.1-5H42.8z"/>
		<path class="st0" d="M48.1,42.4c0,2.4,0.2,3.5,2,3.5v0.2h-5.9v-0.2c1.8,0,2-1.2,2-3.5V27.3c0-2.4-0.2-3.5-2-3.5v-0.2h5.9v0.2
			c-1.8,0-2,1.2-2,3.5V42.4z"/>
		<path class="st0" d="M66.9,40.7c0,3.6-3,5.7-7.3,5.7c-1.8,0-3.5-0.4-4.5-0.6c-1-0.2-2.6-0.7-2.6,1.5h-0.2v-8.1h0.2
			c0,3,3.1,7.1,7.1,7.1c2.9,0,5.4-2,5.4-4.7c0-6.5-11.9-5.9-11.9-12.9c0-3.8,3-5.4,6.4-5.4c1.8,0,3.2,0.5,4.7,0.9
			c1.2,0.3,1.6,0,1.6-1.8h0.2v8.1h-0.2c0-3.5-2.3-7.1-6.2-7.1c-2.1,0-4.8,1.2-4.8,4.3C54.8,33.9,66.9,33.9,66.9,40.7z"/>
		<path class="st0" d="M85.8,40.9l-1.4,5.2H69.2v-0.2c1.8,0,2-1.2,2-3.5V27.3c0-2.4-0.2-3.5-2-3.5v-0.2h14.3l1.3,5.2h-0.1
			c-0.9-2.1-2.9-5-6.1-5H75c-1.8,0-2,1.2-2,3.5v7.5h3.3c2.5,0,4.5-1.6,4.5-3.8h0.2v7.8h-0.2c0-2.2-2-3.8-4.5-3.8H73v7.5
			c0,2.4,0.2,3.5,2,3.5h4.5c3.2,0,5.1-3,6.1-5H85.8z"/>
		<path class="st0" d="M109.6,23.6v0.2c-2.4,0-3.8,1.6-3.8,5.5v16.9h-0.3c-0.7-0.9-14.7-18.8-15.4-19.7v14.1c0,3.8,1.4,5.4,3.8,5.4
			v0.2h-7.8v-0.2c2.4,0,3.8-1.6,3.8-5.4V26.2c-1-1.3-2.3-2.4-3.6-2.4v-0.2h4.1l15.2,19.7v-14c0-3.8-1.4-5.5-3.8-5.5v-0.2H109.6z"/>
		<path class="st0" d="M127,40c-0.1,3.2-2.5,6.4-7.6,6.4l0.2,3.5h-0.5l0.2-3.5c0,0,0,0-0.1,0c-4.7,0-8.4-2.2-8.4-6.2
			c0-3.8,2.4-5.9,6.5-6.1c-3.2-0.7-5-2.9-5-5.8c0-3.9,3.3-5,6.1-5c0.1,0,0.3,0,0.4,0l-0.2-3.4h0.5l-0.2,3.5c6.2,0.4,6.2,7.3,2.8,8.8
			c0-0.3,0-0.3,0-0.5c3.3-2,2.2-8.2-3-8.2c-2.5,0-5.2,1.4-5.1,5.1c0.1,2.9,2.7,5.6,5.6,5.6c0.5,0,0.5,0,1.1,0v0.3
			c-0.6,0-1.6,0-1.9,0c-2.9,0-6.2,1.7-6,5.9c0.3,4.7,4.4,6,7.2,6c4.5,0,7.1-3,7.1-6.1c0-2.8-1.8-4.7-3.6-4.9v-0.5
			C125.5,35.2,127.1,37.3,127,40z"/>
		<path class="st0" d="M149.1,43.1v0.5c-1.7,1.4-3.8,2.5-7.3,2.8c-6.7,0.4-12.3-3.6-12.9-10.4c-0.6-6.8,4.2-12,10.9-12.6
			c2.1-0.2,5,0.4,6.3,0.7c1.4,0.3,2.5,0.6,2.5-1.5h0.1v7.6h-0.1c0-2.3-1.9-4.3-3.7-5.4c-1.6-0.9-3.4-1.4-5.1-1.2
			c-4.9,0.4-9.5,5.1-8.8,12.2c0.7,7.2,5.8,10.6,10.8,10.4C144.8,46.1,147.3,44.7,149.1,43.1z"/>
		<path class="st0" d="M175.2,33.8c0.4,7-4.3,12-10.9,12.5c-6.7,0.6-12.3-3.7-13-10.4c-0.7-6.8,4.3-12,11-12.6
			C168.9,22.8,174.9,26.8,175.2,33.8z M173.1,34.1c-0.5-6.8-6-11-10.9-10.5c-4.9,0.5-9.4,4.9-8.8,12.1c0.5,7.2,6,11,10.9,10.5
			C169.1,45.7,173.6,40.9,173.1,34.1z"/>
	</g>
	<g>
		<path class="st0" d="M40.4,61.2v-3.1h0.3V61h1.6v0.2H40.4z"/>
		<path class="st0" d="M46.9,61.2v-3.1h1.8v0.2h-1.5v1.2h1.1v0.2h-1.1V61h1.6v0.2H46.9z"/>
		<path class="st0" d="M54.5,61.2c-0.2,0-0.5,0-0.7-0.1s-0.4-0.2-0.5-0.3c-0.1-0.1-0.2-0.3-0.3-0.5C53,60.1,53,59.9,53,59.6
			c0-0.3,0.1-0.6,0.2-0.9s0.3-0.4,0.6-0.6c0.2-0.1,0.5-0.2,0.8-0.2c0.2,0,0.3,0,0.5,0.1s0.3,0.1,0.4,0.1s0.1,0.1,0.2,0.1v0.3
			c-0.1-0.1-0.3-0.1-0.4-0.2c-0.2-0.1-0.4-0.1-0.6-0.1c-0.4,0-0.7,0.1-0.9,0.4c-0.2,0.2-0.4,0.6-0.4,1c0,0.3,0,0.5,0.1,0.7
			c0.1,0.2,0.2,0.4,0.4,0.5s0.4,0.2,0.7,0.2c0.2,0,0.4,0,0.5-0.1c0.1-0.1,0.3-0.1,0.3-0.3s0.1-0.2,0.2-0.4c0-0.1,0.1-0.3,0.1-0.5
			h-1.1v-0.2h1.4v0.1c0,0.2,0,0.3,0,0.4s-0.1,0.3-0.1,0.4s-0.1,0.3-0.2,0.3c-0.1,0.1-0.2,0.2-0.4,0.2C54.9,61.2,54.8,61.2,54.5,61.2
			z"/>
		<path class="st0" d="M60.2,61.2l1.4-3.2h0l1.4,3.2h-0.3l-0.3-0.7h-1.6l-0.3,0.7H60.2z M60.9,60.2h1.5l-0.7-1.7L60.9,60.2z"/>
		<path class="st0" d="M67.6,61.2v-3.1h0.3V61h1.6v0.2H67.6z"/>
		<path class="st0" d="M79.9,58.1c0.1,0,0.3,0,0.4,0c0.1,0,0.2,0,0.3,0.1s0.2,0.1,0.3,0.2c0.1,0.1,0.1,0.2,0.2,0.3s0.1,0.3,0.1,0.4
			c0,0.2,0,0.3-0.1,0.4s-0.1,0.2-0.2,0.3c-0.1,0.1-0.2,0.1-0.3,0.2S80.4,60,80.3,60c-0.1,0-0.2,0-0.4,0h-0.6v1.2H79v-3.1H79.9z
			 M79.9,59.8c0.6,0,1-0.3,1-0.8c0-0.1,0-0.3-0.1-0.4c0-0.1-0.1-0.2-0.2-0.2c-0.1-0.1-0.2-0.1-0.3-0.1c-0.1,0-0.2,0-0.4,0h-0.6v1.5
			H79.9z"/>
		<path class="st0" d="M87.2,59.9l0.8,1.3h-0.3L86.9,60H86v1.2h-0.3v-3.1h1c0.3,0,0.6,0.1,0.8,0.2c0.2,0.2,0.3,0.4,0.3,0.7
			c0,0.1,0,0.3-0.1,0.4c0,0.1-0.1,0.2-0.2,0.3c-0.1,0.1-0.1,0.1-0.2,0.2S87.3,59.9,87.2,59.9z M86.7,59.7c0.1,0,0.2,0,0.3,0
			c0.1,0,0.2-0.1,0.3-0.1s0.1-0.1,0.2-0.2c0-0.1,0.1-0.2,0.1-0.4c0-0.2-0.1-0.4-0.2-0.5c-0.2-0.1-0.4-0.2-0.6-0.2H86v1.4H86.7z"/>
		<path class="st0" d="M92.2,61.2l1.4-3.2h0l1.4,3.2h-0.3l-0.3-0.7h-1.6l-0.3,0.7H92.2z M92.9,60.2h1.5l-0.7-1.7L92.9,60.2z"/>
		<path class="st0" d="M100.9,61.2c-0.3,0-0.6-0.1-0.8-0.2s-0.4-0.3-0.5-0.6s-0.2-0.5-0.2-0.8c0-0.3,0.1-0.6,0.2-0.8
			c0.1-0.2,0.3-0.4,0.5-0.6c0.2-0.1,0.5-0.2,0.8-0.2c0.2,0,0.4,0,0.5,0.1s0.3,0.1,0.4,0.2v0.3c-0.3-0.2-0.5-0.3-0.9-0.3
			c-0.4,0-0.7,0.1-0.9,0.4c-0.2,0.2-0.3,0.6-0.3,1c0,0.4,0.1,0.8,0.3,1c0.2,0.2,0.5,0.4,0.9,0.4c0.2,0,0.3,0,0.5-0.1
			c0.2,0,0.3-0.1,0.4-0.2V61c-0.1,0.1-0.2,0.1-0.4,0.2C101.3,61.2,101.1,61.2,100.9,61.2z"/>
		<path class="st0" d="M107.3,61.2v-2.9h-1v-0.2h2.2v0.2h-1v2.9H107.3z"/>
		<path class="st0" d="M113.1,61.2v-3.1h0.3v3.1H113.1z"/>
		<path class="st0" d="M118.9,61.2v-2.9h-1v-0.2h2.2v0.2h-1v2.9H118.9z"/>
		<path class="st0" d="M124.7,61.2v-3.1h0.3v3.1H124.7z"/>
		<path class="st0" d="M131.2,61.2c-0.2,0-0.4,0-0.5-0.1s-0.3-0.1-0.4-0.2c-0.1-0.1-0.2-0.2-0.3-0.3c-0.1-0.1-0.1-0.3-0.2-0.4
			c0-0.2-0.1-0.3-0.1-0.5c0-0.2,0-0.4,0.1-0.6c0.1-0.2,0.2-0.4,0.3-0.5c0.1-0.1,0.3-0.3,0.5-0.3c0.2-0.1,0.4-0.1,0.6-0.1
			c0.2,0,0.5,0,0.7,0.1c0.2,0.1,0.4,0.2,0.5,0.3c0.1,0.1,0.2,0.3,0.3,0.5c0.1,0.2,0.1,0.4,0.1,0.6c0,0.2,0,0.4-0.1,0.6
			c-0.1,0.2-0.2,0.4-0.3,0.5c-0.1,0.1-0.3,0.3-0.5,0.3S131.4,61.2,131.2,61.2z M131.2,61c0.4,0,0.7-0.1,0.9-0.4s0.3-0.6,0.3-1
			c0-0.3,0-0.5-0.1-0.7c-0.1-0.2-0.2-0.4-0.4-0.5c-0.2-0.1-0.4-0.2-0.7-0.2c-0.4,0-0.7,0.1-0.9,0.4c-0.2,0.3-0.3,0.6-0.3,1
			c0,0.3,0,0.5,0.1,0.7c0.1,0.2,0.2,0.4,0.4,0.5C130.7,60.9,130.9,61,131.2,61z"/>
		<path class="st0" d="M139.9,61.2l-2.2-2.6v2.6h-0.3V58h0l2.2,2.6v-2.6h0.3L139.9,61.2L139.9,61.2z"/>
		<path class="st0" d="M144.7,61.2v-3.1h1.8v0.2H145v1.2h1.1v0.2H145V61h1.6v0.2H144.7z"/>
		<path class="st0" d="M152.5,59.9l0.8,1.3H153l-0.8-1.2h-0.9v1.2h-0.3v-3.1h1c0.3,0,0.6,0.1,0.8,0.2c0.2,0.2,0.3,0.4,0.3,0.7
			c0,0.1,0,0.3-0.1,0.4c0,0.1-0.1,0.2-0.2,0.3c-0.1,0.1-0.1,0.1-0.2,0.2S152.6,59.9,152.5,59.9z M152.1,59.7c0.1,0,0.2,0,0.3,0
			s0.2-0.1,0.3-0.1c0.1-0.1,0.1-0.1,0.2-0.2c0-0.1,0.1-0.2,0.1-0.4c0-0.2-0.1-0.4-0.2-0.5c-0.2-0.1-0.4-0.2-0.6-0.2h-0.7v1.4H152.1z
			"/>
		<path class="st0" d="M158.6,61.2c-0.3,0-0.6-0.1-0.8-0.2v-0.3c0.1,0.1,0.2,0.1,0.4,0.2s0.3,0.1,0.4,0.1c0.2,0,0.4,0,0.5-0.1
			c0.1-0.1,0.2-0.2,0.2-0.5c0-0.1,0-0.2-0.1-0.3c-0.1-0.1-0.1-0.2-0.2-0.2c-0.1-0.1-0.2-0.1-0.3-0.1c-0.1,0-0.2-0.1-0.3-0.1
			c-0.1,0-0.2-0.1-0.3-0.2s-0.2-0.1-0.2-0.2c-0.1-0.1-0.1-0.2-0.1-0.4c0-0.3,0.1-0.5,0.2-0.6s0.4-0.2,0.7-0.2c0.3,0,0.5,0.1,0.7,0.2
			v0.3c-0.2-0.1-0.5-0.2-0.7-0.2c-0.2,0-0.4,0-0.5,0.1c-0.1,0.1-0.2,0.2-0.2,0.4c0,0.1,0,0.2,0.1,0.2c0,0.1,0.1,0.1,0.1,0.2
			c0.1,0,0.1,0.1,0.2,0.1c0.1,0,0.2,0.1,0.2,0.1c0.1,0,0.2,0.1,0.2,0.1s0.2,0.1,0.2,0.1c0.1,0,0.1,0.1,0.2,0.2s0.1,0.1,0.1,0.2
			c0,0.1,0.1,0.2,0.1,0.3c0,0.3-0.1,0.5-0.3,0.6C159.1,61.2,158.9,61.2,158.6,61.2z"/>
	</g>
</g>
</svg>
