<?xml version="1.0" encoding="utf-8"?>
<!-- Generator: Adobe Illustrator 22.1.0, SVG Export Plug-In . SVG Version: 6.00 Build 0)  -->
<svg version="1.1" xmlns="http://www.w3.org/2000/svg" xmlns:xlink="http://www.w3.org/1999/xlink" x="0px" y="0px"
	 viewBox="0 0 200 200" style="enable-background:new 0 0 200 200;" xml:space="preserve">
<style type="text/css">
	.st0{fill:#373535;}
</style>
<g id="Layer_1">
</g>
<g id="Layer_2">
</g>
<g id="Layer_3">
</g>
<g id="Layer_4">
</g>
<g id="Layer_5">
</g>
<g id="Layer_6">
	<g>
		<g>
			<path class="st0" d="M70.3,142.6c0-2.5,1.9-4.4,4.5-4.4c2.2,0,3.9,1.5,4.2,3.6h-2.3c-0.3-0.9-1-1.4-1.9-1.4c-1.2,0-2.1,1-2.1,2.3
				c0,1.3,0.9,2.2,2.1,2.2c0.9,0,1.7-0.6,1.9-1.5H79c-0.3,2.2-2,3.7-4.3,3.7C72.2,147,70.3,145.1,70.3,142.6z"/>
			<path class="st0" d="M79,142.6c0-2.6,1.9-4.4,4.6-4.4c2.7,0,4.6,1.8,4.6,4.4c0,2.6-1.9,4.4-4.6,4.4C80.9,147,79,145.2,79,142.6z
				 M85.8,142.6c0-1.3-0.9-2.3-2.2-2.3s-2.2,1-2.2,2.3s0.9,2.3,2.2,2.3S85.8,143.9,85.8,142.6z"/>
			<path class="st0" d="M96.9,146.8l-0.7-4.8l-2.2,4.8h-0.7l-2.2-4.8l-0.6,4.8h-2.3l1.3-8.4h2.3l2,4.6l2-4.6H98l1.3,8.4H96.9z"/>
			<path class="st0" d="M106.3,141.5c0,1.8-1.3,3-3.1,3H102v2.3h-2.3v-8.4h3.6C105,138.4,106.3,139.7,106.3,141.5z M104,141.5
				c0-0.6-0.4-1-1-1h-1v2h1C103.6,142.5,104,142.1,104,141.5z"/>
			<path class="st0" d="M111.1,145.5h-3l-0.5,1.4h-2.5l3.3-8.4h2.3l3.4,8.4h-2.5L111.1,145.5z M109.6,141.1l-0.9,2.6h1.8
				L109.6,141.1z"/>
			<path class="st0" d="M121.7,138.4v8.4h-1.9l-3.3-4.6v4.6h-2.2v-8.4h2l3.2,4.4v-4.4H121.7z"/>
			<path class="st0" d="M127.2,143.5v3.3h-2.4v-3.3l-2.9-5.1h2.6l1.5,3l1.5-3h2.6L127.2,143.5z"/>
		</g>
		<g>
			<path class="st0" d="M78.8,153.2h-1.4v4h-0.2v-4h-1.4V153h2.9V153.2z"/>
			<path class="st0" d="M81.8,154v3.2h-0.2l0-0.8c-0.3,0.5-0.8,0.9-1.5,0.9c-0.9,0-1.7-0.7-1.7-1.7c0-1,0.7-1.7,1.7-1.7
				c0.7,0,1.2,0.4,1.5,0.9l0-0.8H81.8z M81.6,155.6c0-0.9-0.6-1.5-1.5-1.5c-0.8,0-1.5,0.6-1.5,1.5c0,0.9,0.6,1.5,1.5,1.5
				C81,157.1,81.6,156.5,81.6,155.6z"/>
			<path class="st0" d="M85.5,154v2.8c0,1-0.6,1.7-1.5,1.7c-0.7,0-1.2-0.4-1.4-1h0.2c0.2,0.5,0.6,0.8,1.2,0.8c0.8,0,1.3-0.6,1.3-1.5
				v-0.5c-0.3,0.5-0.8,0.8-1.4,0.8c-0.9,0-1.6-0.7-1.6-1.6c0-0.9,0.7-1.6,1.6-1.6c0.6,0,1.2,0.3,1.4,0.9l0-0.8H85.5z M85.3,155.5
				c0-0.8-0.6-1.4-1.4-1.4c-0.8,0-1.4,0.6-1.4,1.4c0,0.8,0.6,1.4,1.4,1.4S85.3,156.3,85.3,155.5z"/>
			<path class="st0" d="M86.3,152.8h0.2v4.4h-0.2V152.8z"/>
			<path class="st0" d="M87.3,152.9h0.3v0.3h-0.3V152.9z M87.3,154h0.2v3.2h-0.2V154z"/>
			<path class="st0" d="M91.1,155.3v1.9h-0.2v-1.9c0-0.8-0.4-1.2-1.1-1.2c-0.7,0-1.2,0.6-1.2,1.2v1.9h-0.2V154h0.2l0,0.7
				c0.2-0.5,0.7-0.8,1.3-0.8C90.6,153.9,91.1,154.5,91.1,155.3z"/>
			<path class="st0" d="M94.8,155.7h-3c0,0.8,0.6,1.4,1.4,1.4c0.6,0,1-0.3,1.3-0.8h0.2c-0.3,0.6-0.8,1-1.5,1c-0.9,0-1.6-0.7-1.6-1.7
				c0-1,0.7-1.7,1.6-1.7C94.1,153.9,94.8,154.6,94.8,155.7C94.8,155.6,94.8,155.6,94.8,155.7z M91.7,155.5h2.8
				c0-0.8-0.6-1.4-1.4-1.4C92.4,154.1,91.8,154.7,91.7,155.5z"/>
			<path class="st0" d="M100.5,155.2c0,1.2-0.9,2-2.1,2c-1.2,0-2.1-0.9-2.1-2.1c0-1.2,0.9-2.2,2.1-2.2c1,0,1.8,0.6,2,1.5h-0.2
				c-0.2-0.8-0.9-1.3-1.8-1.3c-1.1,0-1.9,0.8-1.9,2c0,1.1,0.8,2,1.9,2c1,0,1.8-0.7,1.9-1.6h-2.1v-0.2H100.5z"/>
			<path class="st0" d="M100.8,155.6c0-1,0.7-1.7,1.7-1.7c1,0,1.7,0.7,1.7,1.7s-0.7,1.7-1.7,1.7
				C101.5,157.3,100.8,156.6,100.8,155.6z M103.9,155.6c0-0.9-0.6-1.5-1.5-1.5s-1.5,0.6-1.5,1.5c0,0.9,0.6,1.5,1.5,1.5
				C103.3,157.1,103.9,156.4,103.9,155.6z"/>
			<path class="st0" d="M107.6,155.7h-3c0,0.8,0.6,1.4,1.4,1.4c0.6,0,1-0.3,1.3-0.8h0.2c-0.3,0.6-0.8,1-1.5,1
				c-0.9,0-1.6-0.7-1.6-1.7c0-1,0.7-1.7,1.6-1.7C106.9,153.9,107.6,154.6,107.6,155.7C107.6,155.6,107.6,155.6,107.6,155.7z
				 M106,154.1c-0.8,0-1.4,0.6-1.4,1.4h2.8C107.4,154.6,106.8,154.1,106,154.1L106,154.1z"/>
			<path class="st0" d="M107.8,156.3h0.2c0.1,0.5,0.4,0.8,1,0.8c0.6,0,1-0.3,1-0.7c0-0.6-0.5-0.7-1.1-0.8c-0.6-0.1-1.1-0.2-1.1-0.8
				c0-0.5,0.5-0.9,1.1-0.9c0.7,0,1.1,0.3,1.2,0.9H110c0-0.5-0.4-0.7-1-0.7c-0.6,0-1,0.3-1,0.7c0,0.5,0.5,0.6,1,0.7
				c0.6,0.1,1.2,0.2,1.2,0.9c0,0.6-0.5,0.9-1.2,0.9C108.3,157.3,107.9,156.9,107.8,156.3z"/>
			<path class="st0" d="M115.2,153v4.2H115v-2.1h-2.7v2.1h-0.2V153h0.2v1.9h2.7V153H115.2z"/>
			<path class="st0" d="M119,155.7h-3c0,0.8,0.6,1.4,1.4,1.4c0.6,0,1-0.3,1.3-0.8h0.2c-0.3,0.6-0.8,1-1.5,1c-0.9,0-1.6-0.7-1.6-1.7
				c0-1,0.7-1.7,1.6-1.7C118.3,153.9,119,154.6,119,155.7C119,155.6,119,155.6,119,155.7z M116,155.5h2.8c0-0.8-0.6-1.4-1.4-1.4
				C116.6,154.1,116,154.7,116,155.5z"/>
			<path class="st0" d="M121.1,154v0.2h-0.3c-0.7,0-1.1,0.5-1.1,1.2v1.8h-0.2V154h0.2l0,0.7c0.2-0.5,0.6-0.7,1.2-0.7H121.1z"/>
			<path class="st0" d="M124.2,155.7h-3c0,0.8,0.6,1.4,1.4,1.4c0.6,0,1-0.3,1.3-0.8h0.2c-0.3,0.6-0.8,1-1.5,1
				c-0.9,0-1.6-0.7-1.6-1.7c0-1,0.7-1.7,1.6-1.7C123.6,153.9,124.2,154.6,124.2,155.7C124.2,155.6,124.2,155.6,124.2,155.7z
				 M121.2,155.5h2.8c0-0.8-0.6-1.4-1.4-1.4C121.8,154.1,121.3,154.7,121.2,155.5z"/>
		</g>
	</g>
	<g>
		<path class="st0" d="M113.2,59.6c-2.6,4.5-4.8,8.3-7,12.1c-6.5,11.1-13,22.2-19.4,33.3c-1.2,2-2.5,2.8-4.8,2.7
			c-6.6-0.1-13.3,0-20.7,0c1.7-2.9,3-5.1,4.2-7.3C72.9,88,80.3,75.5,87.4,63c1.5-2.6,3.1-3.5,6-3.4C99.7,59.8,106,59.6,113.2,59.6z"
			/>
		<path class="st0" d="M138.6,107.7c-8,0-15.1,0.1-22.1-0.1c-0.9,0-2.1-0.7-2.5-1.5c-4.3-7.1-8.4-14.3-13-22.2
			c8.1,0,15.5,0,22.9,0.1c0.6,0,1.4,0.8,1.8,1.4C129.8,92.5,133.9,99.7,138.6,107.7z"/>
	</g>
</g>
<g id="Layer_7">
</g>
<g id="Layer_8">
</g>
</svg>
